<?xml version="1.0" standalone="no"?>
<!DOCTYPE svg PUBLIC "-//W3C//DTD SVG 20010904//EN"
 "http://www.w3.org/TR/2001/REC-SVG-20010904/DTD/svg10.dtd">
<svg version="1.0" xmlns="http://www.w3.org/2000/svg"
 width="409.000000pt" height="203.000000pt" viewBox="0 0 409.000000 203.000000"
 preserveAspectRatio="xMidYMid meet">

<g transform="translate(0.000000,203.000000) scale(0.100000,-0.100000)"
fill="#000000" stroke="none">
<path d="M2504 1490 c-82 -64 -177 -196 -258 -358 -36 -73 -68 -132 -70 -132
-2 0 7 60 20 133 25 139 30 222 15 232 -23 13 -63 -109 -111 -338 -27 -132
-50 -253 -50 -270 l1 -32 22 26 c13 14 36 61 52 105 15 43 34 83 42 87 7 4 67
83 133 175 107 151 244 313 253 301 2 -2 0 -49 -5 -105 -5 -64 -32 -200 -74
-375 -87 -365 -83 -403 16 -144 l74 196 174 170 c96 94 176 169 178 166 2 -2
-12 -114 -32 -248 -35 -241 -39 -344 -16 -386 11 -19 8 -33 87 375 60 307 63
352 24 372 -49 27 -124 -34 -284 -230 -97 -119 -99 -121 -91 -90 13 49 36 236
36 295 0 76 -18 105 -64 105 -22 0 -47 -11 -72 -30z"/>
<path d="M1193 1468 l-93 -41 0 -44 c0 -52 -4 -56 -152 -171 -59 -46 -110 -87
-113 -93 -4 -5 5 -29 18 -52 l25 -42 -59 -117 c-32 -65 -59 -129 -59 -143 0
-34 65 -162 89 -175 34 -18 80 -12 106 15 30 30 31 61 4 118 l-21 43 43 92
c24 50 46 89 50 84 4 -4 46 -79 94 -167 87 -161 112 -195 146 -195 45 0 89 41
89 83 0 11 -114 232 -260 504 l-50 91 143 62 c78 35 148 69 156 76 23 21 18
74 -8 96 -31 25 -42 23 -148 -24z"/>
<path d="M957 1419 l-47 -31 -31 26 c-73 61 -179 15 -179 -78 0 -23 7 -52 16
-64 14 -21 14 -24 -5 -48 -25 -32 -26 -52 -5 -82 11 -15 25 -22 50 -22 28 0
55 16 152 91 159 124 172 137 172 171 0 32 -31 68 -58 68 -10 0 -40 -14 -65
-31z"/>
<path d="M1773 1405 c-74 -32 -190 -169 -258 -305 -52 -103 -124 -304 -131
-366 -11 -92 34 -130 146 -122 105 8 170 48 330 204 74 73 132 135 129 138 -3
3 -71 -43 -151 -103 -183 -138 -250 -173 -321 -169 l-52 3 1 38 c1 21 21 90
44 152 42 112 44 114 69 107 42 -11 123 -5 166 12 101 43 233 186 255 278 14
58 1 92 -49 125 -40 27 -126 31 -178 8z m133 -67 c23 -11 25 -17 21 -49 -10
-75 -134 -221 -220 -259 -57 -25 -137 -36 -137 -20 0 26 106 197 154 248 51
54 106 91 138 92 9 0 29 -5 44 -12z"/>
<path d="M3390 1394 c-25 -14 -56 -35 -69 -47 -45 -41 -129 -163 -174 -252
-51 -103 -122 -300 -132 -367 -6 -41 -4 -49 23 -79 26 -29 36 -33 93 -37 123
-7 231 57 402 242 54 58 95 106 91 106 -4 0 -73 -49 -153 -109 -180 -134 -247
-171 -310 -171 -72 0 -78 8 -58 77 30 107 83 228 98 224 48 -13 138 -3 192 22
111 51 247 215 247 297 0 43 -25 87 -60 105 -47 24 -137 19 -190 -11z m143
-53 c13 -5 27 -17 31 -26 19 -50 -122 -233 -216 -281 -52 -27 -132 -42 -141
-27 -9 14 93 188 145 247 43 48 114 96 145 96 6 0 23 -4 36 -9z"/>
</g>
</svg>
